<?xml version="1.0" encoding="utf-8"?>
<!-- Generator: Adobe Illustrator 20.0.0, SVG Export Plug-In . SVG Version: 6.00 Build 0)  -->
<svg version="1.1" id="Layer_1" xmlns="http://www.w3.org/2000/svg" xmlns:xlink="http://www.w3.org/1999/xlink" x="0px" y="0px"
	 viewBox="0 0 490.3 105.6" style="enable-background:new 0 0 490.3 105.6;" xml:space="preserve">
<style type="text/css">
	.st0{enable-background:new    ;}
	.st1{fill:#58575A;}
	.st2{fill:#08A5CE;}
</style>
<g id="Layer_1-2">
	<g class="st0">
		<path class="st1" d="M167.8,66.2c-2.1,1.9-7,7.1-18.4,7.1c-11.5,0-21.5-7.6-21.5-21.4c0-13.8,10.1-21.3,21.7-21.3
			c11,0,15.7,5.8,17,7.2l-6.4,5.6c-1.7-1.9-5-4.7-10.6-4.7c-6.7,0-11.8,4.9-11.8,13.3c0,8.4,5.3,13.3,12,13.3s8.6-2.6,8.6-2.6v-6.1
			h-8.7v-7.4h18.2V66.2z"/>
	</g>
	<g class="st0">
		<path class="st1" d="M198.6,72.7h-24V31.3h9.7v33.4h14.3V72.7z"/>
	</g>
	<g class="st0">
		<path class="st1" d="M215.1,72.7h-9.7V31.3h9.7V72.7z"/>
		<path class="st1" d="M253.2,67.7c-3.4,2.9-8.8,4.9-16,4.9h-14V31.3h14c7.2,0,12.5,2,16,5c3.5,2.9,6.7,7.7,6.7,15.7
			C259.9,60,256.7,64.8,253.2,67.7z M246.4,42.2c-1.7-1.6-4.6-2.9-8.6-2.9h-4.9v25.1h4.9c4,0,6.9-1.3,8.6-3c1.7-1.6,3.7-4.4,3.7-9.5
			C250.1,46.9,248.1,43.9,246.4,42.2z"/>
		<path class="st1" d="M293.3,72.7h-27.4V31.3h26.8V39h-17.2v8.5h16.2v7.7h-16.2v9.6h17.7V72.7z"/>
	</g>
	<g class="st0">
		<path class="st1" d="M332.7,72.7h-11.3l-8.7-15.8h-3.1v15.8H300V31.3h14.9c4.6,0,8.2,1,10.9,2.9c2.8,2,4.6,5.3,4.6,9.5
			c0,7.9-5,10.9-8.1,11.9L332.7,72.7z M318.5,39.8c-1.2-0.9-2.8-1.1-5-1.1h-3.8v10.6h3.8c2.2,0,3.8-0.2,5-1.1c1.3-0.9,2.1-2,2.1-4.2
			C320.6,41.9,319.7,40.7,318.5,39.8z"/>
	</g>
	<g class="st0">
		<path class="st2" d="M373.6,72.7h-24V31.3h9.7v33.4h14.3V72.7z"/>
	</g>
	<g class="st0">
		<path class="st2" d="M418.8,72.7h-10.6l-2.9-8.3h-14.8l-2.9,8.3h-10.1l15.6-41.5h10.1L418.8,72.7z M403.1,56.8L398,41.9l-5.2,14.9
			H403.1z"/>
		<path class="st2" d="M450.5,70c-2.6,1.9-6.4,2.7-10.6,2.7h-16.9V31.3H437c3.8,0,7.4,0.3,10.2,1.7c2.8,1.4,5.3,4.1,5.3,8.7
			c0,4.6-2.9,8-6.1,9.1v0.1c5.2,1.3,8.6,4.7,8.6,9.8C455,65.3,453.1,68,450.5,70z M440.9,39.3c-1.1-0.7-2.2-0.8-4.3-0.8h-4V48h3.8
			c2.2,0,3.4-0.1,4.6-0.9c1.2-0.8,2-1.9,2-4C443,41.2,442.1,40,440.9,39.3z M443.1,55.9c-1.4-1-3.1-1.1-5.2-1.1h-5.3v10.6h5.3
			c2.1,0,3.7-0.1,5.2-1.1c1.4-1,2.1-2.3,2.1-4.1C445.2,58.1,444.5,56.9,443.1,55.9z"/>
	</g>
	<g class="st0">
		<path class="st2" d="M484.1,70c-2.9,2.3-6.8,3.4-11.2,3.4c-6,0-11.3-3.1-14.7-6.2l4.8-7.1c3,3.1,7.6,5.2,10.8,5.2
			c3.1,0,5.5-1.5,5.5-4.3c0-2.8-3.1-3.9-4.9-4.6s-4.9-1.7-6.3-2.3c-1-0.5-3.1-1.3-4.9-3c-1.8-1.7-3.2-4.1-3.2-8c0-4,1.9-7.1,4.3-9.1
			c2.3-2,6.1-3.3,10.9-3.3s10.3,2.3,13.1,5.1l-4.1,6.8c-2.4-2.4-6.1-4.2-9.2-4.2c-3.1,0-5.4,1.2-5.4,3.7c0,2.5,2.3,3.5,4.2,4.2
			c1.8,0.7,4.9,1.8,6.2,2.3c1.1,0.4,3.9,1.5,5.8,3.4c1.7,1.7,3.2,4.3,3.2,8C488.9,64,487.1,67.6,484.1,70z"/>
	</g>
	<circle class="st2" cx="53" cy="10.4" r="10.4"/>
	<circle class="st2" cx="31.7" cy="31.5" r="10.4"/>
	<circle class="st1" cx="10.4" cy="52.6" r="10.4"/>
	<circle class="st1" cx="74.1" cy="31.7" r="10.4"/>
	<circle class="st2" cx="52.8" cy="52.8" r="10.4"/>
	<circle class="st1" cx="31.5" cy="73.9" r="10.4"/>
	<circle class="st2" cx="95.2" cy="53" r="10.4"/>
	<circle class="st1" cx="73.9" cy="74.1" r="10.4"/>
	<circle class="st1" cx="52.6" cy="95.2" r="10.4"/>
</g>
</svg>
